<svg width="55" height="64" viewBox="0 0 55 64" fill="none" xmlns="http://www.w3.org/2000/svg">
<path d="M52.2729 37.7612V31.9022C52.2729 31.8299 52.2355 31.7576 52.1608 31.7214C52.086 31.6852 52.0113 31.7214 51.9739 31.7937L44.9494 41.0523C44.8746 41.1247 44.7999 41.1608 44.6878 41.1608C44.5757 41.1608 44.501 41.1247 44.4263 41.0523L37.4764 31.7937C37.439 31.7214 37.3643 31.7214 37.2896 31.7214C37.2148 31.7576 37.1775 31.8299 37.1775 31.9022V44.5243C37.1775 44.669 37.028 44.8136 36.8786 44.8136H32.5442C32.3948 44.8136 32.2453 44.669 32.2453 44.5243V23.3308C32.2453 23.1861 32.3948 23.0415 32.5442 23.0415H36.8038C36.9159 23.0415 36.9907 23.0776 37.0654 23.15L44.5757 33.1319C44.6504 33.2042 44.7999 33.2042 44.8746 33.1319L52.385 23.15C52.4597 23.0776 52.5344 23.0415 52.6465 23.0415H54.9631C51.264 17.6165 44.912 13.9999 37.7006 13.9999C26.267 13.9999 17.0005 22.933 17.0005 33.9999C17.0005 45.0306 26.267 53.9999 37.6632 53.9999C44.9494 53.9999 51.3387 50.3471 55.0005 44.8498C53.2443 42.933 52.2729 40.5098 52.2729 37.942C52.2729 37.8697 52.2729 37.7973 52.2729 37.7612Z" fill="#F05724"/>
<path d="M51.6438 7.92621C38.5491 -3.5806 18.778 -2.52424 7.52764 10.8689C-3.68584 24.2621 -2.21038 44.4462 10.8843 55.953C20.1797 64.1021 32.7948 66.1771 43.3444 61.6498C39.2131 62.6685 34.7867 62.7062 30.3972 61.6498C15.2369 57.9903 5.83086 42.4089 9.40885 26.903C12.9868 11.3971 28.2209 1.77667 43.3813 5.43621C47.8076 6.49257 51.7176 8.6053 55.0005 11.3971C53.9677 10.1521 52.8611 8.98257 51.6438 7.92621Z" fill="#F05724"/>
</svg>
