<svg width="215" height="85" viewBox="0 0 215 85" fill="none" xmlns="http://www.w3.org/2000/svg">
<path d="M69.8888 50.0678V41.9487C69.8888 41.8485 69.8391 41.7482 69.7395 41.6981C69.6399 41.648 69.5404 41.6981 69.4906 41.7983L60.1323 54.6285C60.0327 54.7288 59.9332 54.7789 59.7838 54.7789C59.6345 54.7789 59.5349 54.7288 59.4354 54.6285L50.1766 41.7983C50.1268 41.6981 50.0273 41.6981 49.9277 41.6981C49.8282 41.7482 49.7784 41.8485 49.7784 41.9487V59.4398C49.7784 59.6403 49.5793 59.8408 49.3801 59.8408H43.6059C43.4067 59.8408 43.2076 59.6403 43.2076 59.4398V30.0707C43.2076 29.8703 43.4067 29.6698 43.6059 29.6698H49.2806C49.4299 29.6698 49.5295 29.7199 49.629 29.8202L59.6345 43.6527C59.734 43.7529 59.9332 43.7529 60.0327 43.6527L70.0382 29.8202C70.1377 29.7199 70.2373 29.6698 70.3866 29.6698H73.4729C68.5448 22.1521 60.0825 17.1403 50.4753 17.1403C35.2431 17.1403 22.8981 29.5194 22.8981 44.8555C22.8981 60.1415 35.2431 72.5707 50.4255 72.5707C60.1323 72.5707 68.6444 67.5088 73.5226 59.8909C71.1831 57.2347 69.8888 53.8768 69.8888 50.3184C69.8888 50.2181 69.8888 50.1179 69.8888 50.0678Z" fill="#F05724"/>
<path d="M114.391 41.1969C114.291 41.0466 114.142 40.9965 113.993 40.9965H110.359C110.16 40.9965 110.01 41.0967 109.911 41.2972L104.933 53.6763L99.955 41.2972C99.9052 41.0967 99.7061 40.9965 99.507 40.9965H95.8732C95.8234 40.9965 95.7239 40.9965 95.6741 41.0466C95.6243 40.9965 95.5247 40.9965 95.475 40.9965H92.1398C91.8909 40.9965 91.642 41.1969 91.642 41.4976V42.6002C90.2482 41.5979 88.3567 40.6456 86.1166 40.6456C83.4784 40.6456 81.0392 41.648 79.1477 43.5024C77.3059 45.4068 76.3103 47.8626 76.3103 50.4687C76.3103 53.0749 77.3059 55.5808 79.1974 57.4852C81.0392 59.3396 83.5282 60.342 86.1166 60.342C88.3567 60.342 90.2482 59.3897 91.642 58.3874V59.49C91.642 59.7406 91.8412 59.9911 92.1398 59.9911H95.475C95.7239 59.9911 95.9728 59.7907 95.9728 59.49V42.9511L102.693 59.5902C102.743 59.7907 102.942 59.8909 103.141 59.8909H106.775C106.974 59.8909 107.123 59.7907 107.223 59.5902L114.441 41.648C114.49 41.4976 114.49 41.3473 114.391 41.1969ZM86.2162 56.0318C83.1797 56.0318 80.6908 53.5259 80.6908 50.4186C80.6908 47.3614 83.1797 44.8054 86.2162 44.8054C89.2527 44.8054 91.7416 47.3113 91.7416 50.4186C91.6918 53.5259 89.2527 56.0318 86.2162 56.0318Z" fill="#F05724"/>
<path d="M128.876 43.7028C127.184 41.8485 124.894 40.8461 122.455 40.8461C120.065 40.8461 117.726 41.8986 116.083 43.7028C114.938 45.0059 114.092 46.5596 113.744 48.2636C113.594 49.0153 113.495 49.7671 113.495 50.4688C113.495 50.7695 113.495 51.0702 113.544 51.3208C113.694 53.5761 114.59 55.6309 116.083 57.2347C117.726 59.089 120.016 60.1415 122.505 60.1415C124.346 60.0413 126.039 59.5902 127.433 58.7382C128.329 58.1869 129.175 57.4853 129.921 56.6333C130.021 56.533 130.071 56.3827 130.021 56.2323C130.021 56.082 129.921 55.9817 129.772 55.8815L126.985 54.1775C126.785 54.0773 126.537 54.0773 126.387 54.2276C125.392 55.23 123.849 55.8815 122.355 55.9817C120.165 55.9316 118.224 54.1274 117.726 51.6215H130.917C131.166 51.6215 131.365 51.421 131.365 51.2205C131.415 50.8196 131.465 49.8674 131.166 48.2135C130.917 46.6598 130.121 45.1062 128.876 43.7028ZM118.224 47.9629C119.07 46.1586 120.712 44.9558 122.505 44.9558C124.297 44.9558 125.939 46.1085 126.785 47.9629H118.224Z" fill="#F05724"/>
<path d="M142.117 40.6456C140.574 40.6456 138.931 41.1969 137.338 42.2494V41.4475C137.338 41.1969 137.139 40.9463 136.841 40.9463H133.505C133.257 40.9463 133.008 41.1468 133.008 41.4475V59.3897C133.008 59.6403 133.207 59.8909 133.505 59.8909H136.841C137.09 59.8909 137.338 59.6904 137.338 59.3897V49.7671C137.338 47.0607 139.479 44.9057 142.117 44.9057C144.755 44.9057 146.896 47.1108 146.896 49.7671V59.3897C146.896 59.6403 147.095 59.8909 147.394 59.8909H150.729C150.978 59.8909 151.227 59.6904 151.227 59.3897V49.7671C151.227 47.3113 150.281 45.056 148.588 43.3019C146.846 41.5979 144.606 40.6456 142.117 40.6456Z" fill="#F05724"/>
<path d="M163.97 49.5666C163.124 49.0655 160.286 48.4139 159.689 48.3137C157.25 47.8125 156.752 47.2111 156.752 46.4593C156.752 45.9582 157.15 45.4069 157.797 45.1062C158.245 44.8556 158.793 44.7553 159.49 44.7553C160.187 44.7553 161.581 44.9558 163.223 46.2087C163.422 46.3591 163.721 46.3591 163.87 46.1586L165.812 43.9033C165.911 43.8031 165.961 43.6527 165.911 43.5525C165.911 43.4021 165.861 43.3019 165.712 43.2017C164.269 41.9988 162.526 41.2471 160.684 40.9464C158.992 40.796 157.499 40.8963 156.055 41.5979C154.96 42.0991 154.213 42.7005 153.666 43.5024C153.068 44.4045 152.72 45.457 152.72 46.5095C152.72 48.5142 153.666 50.0678 155.458 51.1203C156.354 51.6215 158.196 52.0725 159.49 52.3231C159.589 52.3231 159.689 52.3733 159.788 52.3733C162.526 52.8744 162.875 53.6763 162.875 54.2777C162.875 55.1799 162.277 55.6309 161.78 55.8815C161.182 56.1321 160.585 56.2824 159.888 56.2824C158.843 56.2824 157.25 55.9316 155.308 54.2777C155.109 54.1274 154.811 54.1274 154.661 54.3278L152.571 56.6333C152.471 56.7335 152.421 56.8337 152.471 56.9841C152.471 57.1344 152.521 57.2347 152.62 57.3349C154.213 58.6881 156.055 59.5902 158.146 60.0413C158.892 60.1916 159.49 60.2418 160.037 60.2418C161.232 60.2418 162.427 59.9912 163.422 59.5401C164.567 58.9888 165.413 58.2872 165.961 57.4352C166.558 56.5832 166.907 55.4806 166.907 54.3278C166.907 53.2253 166.608 52.1728 166.011 51.2707C165.563 50.6692 165.115 50.1681 163.97 49.5666Z" fill="#F05724"/>
<path d="M177.261 40.5955C174.622 40.5955 172.183 41.5979 170.292 43.4522C168.45 45.3567 167.454 47.8125 167.454 50.4186C167.454 53.0248 168.45 55.5307 170.341 57.4351C172.233 59.2895 174.672 60.2919 177.261 60.2919C179.849 60.2919 182.338 59.2895 184.18 57.4351C186.071 55.5307 187.067 53.0749 187.067 50.4688C187.067 47.8626 186.022 45.3567 184.18 43.5024C182.338 41.5979 179.899 40.5955 177.261 40.5955ZM177.261 55.9817C174.224 55.9817 171.735 53.4758 171.735 50.4186C171.735 47.3614 174.224 44.9057 177.261 44.9057C180.297 44.9057 182.786 47.3614 182.786 50.4186C182.786 53.4758 180.297 55.9817 177.261 55.9817Z" fill="#F05724"/>
<path d="M214.246 59.2895L213.4 56.0819C213.35 55.8815 213.151 55.7311 212.952 55.7311H209.965C208.87 55.7311 207.775 54.5784 207.775 53.3756V45.1562H212.802C213.051 45.1562 213.3 44.9558 213.3 44.6551V41.4475C213.3 41.1969 213.101 40.9463 212.802 40.9463H207.775V34.5312C207.775 34.2807 207.576 34.0301 207.277 34.0301H203.942C203.693 34.0301 203.444 34.2305 203.444 34.5312V40.9965H203.096H201.304H194.285V36.6362C194.285 35.4334 195.33 34.3809 196.475 34.3809H199.462C199.661 34.3809 199.86 34.2305 199.91 34.0301L200.756 30.8225C200.806 30.6722 200.756 30.5218 200.656 30.4216C200.557 30.3213 200.408 30.2211 200.258 30.2211H196.326C192.791 30.2211 189.954 33.0778 189.954 36.5861V41.0466H187.764C187.515 41.0466 187.266 41.247 187.266 41.5477V44.7553C187.266 45.0059 187.465 45.2565 187.764 45.2565H189.954V59.49C189.954 59.7405 190.153 59.9911 190.452 59.9911H193.787C194.036 59.9911 194.285 59.7907 194.285 59.49V45.1562H201.304H203.096H203.494V53.4257C203.494 56.9841 206.381 59.8408 209.865 59.8408H213.798C213.947 59.8408 214.097 59.7907 214.196 59.6403C214.296 59.5902 214.296 59.3897 214.246 59.2895Z" fill="#F05724"/>
<path d="M69.6896 10.5248C52.0183 -4.7612 25.3371 -3.3579 10.1547 14.434C-4.97788 32.2258 -2.98675 59.0389 14.6846 74.3249C27.2287 85.1503 44.2529 87.9068 58.4895 81.8927C52.9143 83.2459 46.9409 83.296 41.0173 81.8927C20.5584 77.0312 7.86493 56.3325 12.6934 35.7341C17.5219 15.1356 38.0804 2.35554 58.5393 7.21698C64.5127 8.62028 69.7892 11.4269 74.2195 15.1356C72.8257 13.4817 71.3323 11.9281 69.6896 10.5248Z" fill="#F05724"/>
</svg>
